<?xml version="1.0" encoding="UTF-8"?>
<svg viewBox="0 0 500 500" xmlns="http://www.w3.org/2000/svg">
<rect width="500" height="500" rx="50" fill="#333"/>
<path d="M450,500H50A50.06,50.06,0,0,1,0,450V50A50.06,50.06,0,0,1,50,0H450a50.06,50.06,0,0,1,50,50V450A50.06,50.06,0,0,1,450,500ZM50,25A25,25,0,0,0,25,50V450a25,25,0,0,0,25,25H450a25,25,0,0,0,25-25V50a25,25,0,0,0-25-25Z" fill="#e6ca30"/>
<path d="M345,65H155a50,50,0,0,0-50,50V412.5c0,12.43,8.79,22.5,19.64,22.5h15.72c10.85,0,19.64-10.07,19.64-22.5V348H345a50,50,0,0,0,50-50V115A50,50,0,0,0,345,65Zm-5,223a5,5,0,0,1-5,5H165a5,5,0,0,1-5-5V125a5,5,0,0,1,5-5H335a5,5,0,0,1,5,5Z" fill="#e6ca30"/>
<circle cx="250.5" cy="320.5" r="22.5" fill="#4292ed"/>
<path d="M380,195.84V293c.12,18.52-15.79,39.61-37.25,40H299.69l23.49,23.49L305.5,374.18,250.32,319l55.18-55.18,17.68,17.68L296.67,308h45.7c6.08-.18,12.67-8,12.63-14.93V195.84Z" fill="#ed4292"/>
<circle cx="367.5" cy="206.5" r="22.5" fill="#4292ed"/>
<path d="m423.18 152-55.18 55.18-55.18-55.18 17.68-17.68 24.5 24.51v-41.71c-0.17-6.37-6.27-12.12-12.86-12.12h-78.4v-25h78.26c20.17-0.16 37.64 16.7 38 36.75v0.25 42.83l25.49-25.49z" fill="#ed4292"/>
<circle cx="250.5" cy="92.5" r="22.5" fill="#4292ed"/>
<path d="M251.18,93,196,148.18,178.32,130.5l25.5-25.5h-46.2c-6.78.18-12.66,5.73-12.62,11.93v98.14H120V117c-.13-20,16.58-36.63,37.25-37h45.57l-24.5-24.5L196,37.82Z" fill="#ed4292"/>
<circle cx="132.5" cy="206.5" r="22.5" fill="#4292ed"/>
<polygon points="185.22 258.79 167.54 276.47 145 253.93 145 421.75 120 421.75 120 253.93 97.46 276.47 79.78 258.79 132.5 206.07" fill="#ed4292"/>
</svg>
